<svg width="153" height="63" viewBox="0 0 153 63" fill="none" xmlns="http://www.w3.org/2000/svg">
<path d="M14.0338 13.8589L24.4941 19.7167C24.807 19.8919 25.1897 19.8862 25.4972 19.7017L34.4999 14.3001C34.8089 14.1146 35.1938 14.1098 35.5074 14.2875L49.493 22.2127C49.8063 22.3903 50 22.7226 50 23.0827V39.9173C50 40.2774 49.8063 40.6097 49.493 40.7873L35.4951 48.7195C35.1881 48.8934 34.8122 48.8927 34.5059 48.7177L25.0013 43.2865C24.6911 43.1092 24.3099 43.1109 24.0013 43.2909L13.9879 49.1321C13.3248 49.5189 13.3268 50.4777 13.9914 50.8617L34.4775 62.6981C34.7989 62.8838 35.1966 62.8762 35.5106 62.6785L61.5328 46.2942C61.8236 46.1111 62 45.7915 62 45.4479V17.0608C62 16.7125 61.8187 16.3892 61.5215 16.2076L35.5071 0.309909C35.1946 0.118897 34.8026 0.114069 34.4854 0.297326L14.0221 12.1206C13.3506 12.5085 13.3572 13.48 14.0338 13.8589Z" fill="black"/>
<path d="M30 31L7.5 43.9904L7.5 18.0096L30 31Z" fill="#4F46E5"/>
<path d="M86.3111 17.1662H84.3168C84.2401 16.7401 84.0973 16.3651 83.8885 16.0412C83.6797 15.7173 83.424 15.4425 83.1214 15.2166C82.8189 14.9908 82.4801 14.8203 82.1051 14.7053C81.7344 14.5902 81.3402 14.5327 80.9226 14.5327C80.1683 14.5327 79.4929 14.7223 78.8963 15.1016C78.304 15.4808 77.8352 16.0369 77.4901 16.7699C77.1491 17.5028 76.9787 18.3977 76.9787 19.4545C76.9787 20.5199 77.1491 21.419 77.4901 22.152C77.8352 22.8849 78.3061 23.4389 78.9027 23.8139C79.4993 24.1889 80.1705 24.3764 80.9162 24.3764C81.3295 24.3764 81.7216 24.321 82.0923 24.2102C82.4673 24.0952 82.8061 23.9268 83.1087 23.7053C83.4112 23.4837 83.6669 23.2131 83.8757 22.8935C84.0888 22.5696 84.2358 22.1989 84.3168 21.7812L86.3111 21.7876C86.2045 22.4311 85.9979 23.0234 85.6911 23.5646C85.3885 24.1016 84.9986 24.5661 84.5213 24.9581C84.0483 25.3459 83.5071 25.6463 82.8977 25.8594C82.2884 26.0724 81.6236 26.179 80.9034 26.179C79.7699 26.179 78.7599 25.9105 77.8736 25.3736C76.9872 24.8324 76.2884 24.0589 75.777 23.0533C75.2699 22.0476 75.0163 20.848 75.0163 19.4545C75.0163 18.0568 75.272 16.8572 75.7834 15.8558C76.2947 14.8501 76.9936 14.0788 77.88 13.5419C78.7663 13.0007 79.7741 12.7301 80.9034 12.7301C81.598 12.7301 82.2457 12.8303 82.8466 13.0305C83.4517 13.2266 83.995 13.5163 84.4766 13.8999C84.9581 14.2791 85.3565 14.7436 85.6719 15.2933C85.9872 15.8388 86.2003 16.4631 86.3111 17.1662ZM89.6925 26H87.5959L92.3068 12.9091H94.5888L99.2997 26H97.2031L93.5021 15.2869H93.3999L89.6925 26ZM90.044 20.8736H96.8452V22.5355H90.044V20.8736ZM101.19 12.9091H103.587L107.755 23.0852H107.908L112.076 12.9091H114.473V26H112.594V16.527H112.472L108.611 25.9808H107.052L103.191 16.5206H103.069V26H101.19V12.9091ZM117.344 26V12.9091H122.011C123.029 12.9091 123.873 13.0945 124.542 13.4652C125.211 13.8359 125.712 14.343 126.044 14.9865C126.376 15.6257 126.543 16.3459 126.543 17.147C126.543 17.9524 126.374 18.6768 126.038 19.3203C125.705 19.9595 125.202 20.4666 124.529 20.8416C123.86 21.2124 123.018 21.3977 122.004 21.3977H118.795V19.723H121.825C122.469 19.723 122.991 19.6122 123.391 19.3906C123.792 19.1648 124.086 18.858 124.273 18.4702C124.461 18.0824 124.555 17.6413 124.555 17.147C124.555 16.6527 124.461 16.2138 124.273 15.8303C124.086 15.4467 123.79 15.1463 123.385 14.929C122.984 14.7116 122.456 14.603 121.8 14.603H119.32V26H117.344ZM137.276 12.9091H139.258V21.5192C139.258 22.4354 139.043 23.2472 138.612 23.9545C138.182 24.6577 137.577 25.2116 136.797 25.6165C136.017 26.017 135.103 26.2173 134.055 26.2173C133.011 26.2173 132.099 26.017 131.319 25.6165C130.539 25.2116 129.934 24.6577 129.504 23.9545C129.073 23.2472 128.858 22.4354 128.858 21.5192V12.9091H130.833V21.3594C130.833 21.9517 130.963 22.478 131.223 22.9382C131.487 23.3984 131.86 23.7607 132.342 24.0249C132.823 24.2848 133.394 24.4148 134.055 24.4148C134.72 24.4148 135.293 24.2848 135.774 24.0249C136.26 23.7607 136.631 23.3984 136.887 22.9382C137.146 22.478 137.276 21.9517 137.276 21.3594V12.9091ZM149.27 16.348C149.201 15.7429 148.92 15.2741 148.426 14.9418C147.931 14.6051 147.309 14.4368 146.559 14.4368C146.022 14.4368 145.558 14.522 145.166 14.6925C144.774 14.8587 144.469 15.0888 144.252 15.3828C144.039 15.6726 143.932 16.0028 143.932 16.3736C143.932 16.6847 144.005 16.9531 144.15 17.179C144.299 17.4048 144.493 17.5945 144.731 17.7479C144.974 17.897 145.234 18.0227 145.511 18.125C145.788 18.223 146.054 18.304 146.31 18.3679L147.588 18.7003C148.006 18.8026 148.434 18.9411 148.873 19.1158C149.312 19.2905 149.719 19.5206 150.094 19.8061C150.469 20.0916 150.772 20.4453 151.002 20.8672C151.236 21.2891 151.353 21.794 151.353 22.3821C151.353 23.1236 151.162 23.782 150.778 24.3572C150.399 24.9325 149.847 25.3864 149.123 25.7188C148.402 26.0511 147.531 26.2173 146.508 26.2173C145.528 26.2173 144.68 26.0618 143.964 25.7507C143.248 25.4396 142.688 24.9986 142.283 24.4276C141.878 23.8523 141.654 23.1705 141.612 22.3821H143.593C143.632 22.8551 143.785 23.2493 144.054 23.5646C144.326 23.8757 144.674 24.108 145.096 24.2614C145.522 24.4105 145.988 24.4851 146.495 24.4851C147.054 24.4851 147.55 24.3977 147.985 24.223C148.424 24.044 148.769 23.7969 149.02 23.4815C149.272 23.1619 149.397 22.7891 149.397 22.3629C149.397 21.9751 149.287 21.6577 149.065 21.4105C148.848 21.1634 148.551 20.9588 148.176 20.7969C147.806 20.6349 147.386 20.4922 146.917 20.3686L145.37 19.9467C144.322 19.6612 143.491 19.2415 142.877 18.6875C142.268 18.1335 141.963 17.4006 141.963 16.4886C141.963 15.7344 142.168 15.076 142.577 14.5135C142.986 13.951 143.54 13.5142 144.239 13.2031C144.938 12.8878 145.726 12.7301 146.604 12.7301C147.49 12.7301 148.272 12.8857 148.95 13.1967C149.632 13.5078 150.169 13.9361 150.561 14.4815C150.953 15.0227 151.157 15.6449 151.174 16.348H149.27Z" fill="black"/>
<path d="M75.517 47V29.5455H82.4034C83.7216 29.5455 84.8466 29.7812 85.7784 30.2528C86.7159 30.7187 87.429 31.3807 87.9176 32.2386C88.4119 33.0909 88.6591 34.0937 88.6591 35.2472C88.6591 36.4062 88.4091 37.4034 87.9091 38.2386C87.4091 39.0682 86.6847 39.7045 85.7358 40.1477C84.7926 40.5909 83.6506 40.8125 82.3097 40.8125H77.6989V37.8466H81.7131C82.4176 37.8466 83.0028 37.75 83.4688 37.5568C83.9347 37.3636 84.2813 37.0739 84.5085 36.6875C84.7415 36.3011 84.858 35.821 84.858 35.2472C84.858 34.6676 84.7415 34.179 84.5085 33.7812C84.2813 33.3835 83.9318 33.0824 83.4602 32.8778C82.9943 32.6676 82.4063 32.5625 81.696 32.5625H79.2074V47H75.517ZM84.9432 39.0568L89.2812 47H85.2074L80.9631 39.0568H84.9432ZM91.267 47V29.5455H103.028V32.5881H94.9574V36.7472H102.423V39.7898H94.9574V43.9574H103.062V47H91.267ZM116.744 29.5455H120.434V40.8807C120.434 42.1534 120.13 43.267 119.522 44.2216C118.92 45.1761 118.076 45.9205 116.991 46.4545C115.906 46.983 114.641 47.2472 113.198 47.2472C111.749 47.2472 110.482 46.983 109.397 46.4545C108.312 45.9205 107.468 45.1761 106.866 44.2216C106.263 43.267 105.962 42.1534 105.962 40.8807V29.5455H109.653V40.5653C109.653 41.2301 109.798 41.821 110.087 42.3381C110.383 42.8551 110.798 43.2614 111.332 43.5568C111.866 43.8523 112.488 44 113.198 44C113.914 44 114.536 43.8523 115.065 43.5568C115.599 43.2614 116.011 42.8551 116.3 42.3381C116.596 41.821 116.744 41.2301 116.744 40.5653V29.5455ZM132.939 34.5653C132.871 33.8778 132.578 33.3437 132.061 32.9631C131.544 32.5824 130.842 32.392 129.956 32.392C129.354 32.392 128.845 32.4773 128.43 32.6477C128.016 32.8125 127.697 33.0426 127.476 33.3381C127.26 33.6335 127.152 33.9688 127.152 34.3438C127.141 34.6562 127.206 34.929 127.348 35.1619C127.496 35.3949 127.697 35.5966 127.953 35.767C128.209 35.9318 128.504 36.0767 128.839 36.2017C129.175 36.321 129.533 36.4233 129.913 36.5085L131.482 36.8835C132.243 37.054 132.942 37.2812 133.578 37.5653C134.214 37.8494 134.766 38.1989 135.232 38.6136C135.697 39.0284 136.058 39.517 136.314 40.0795C136.575 40.642 136.709 41.2869 136.714 42.0142C136.709 43.0824 136.436 44.0085 135.896 44.7926C135.362 45.571 134.589 46.1761 133.578 46.608C132.572 47.0341 131.359 47.2472 129.939 47.2472C128.53 47.2472 127.303 47.0312 126.257 46.5994C125.217 46.1676 124.405 45.5284 123.82 44.6818C123.24 43.8295 122.936 42.7756 122.908 41.5199H126.479C126.518 42.1051 126.686 42.5937 126.982 42.9858C127.283 43.3722 127.683 43.6648 128.183 43.8636C128.689 44.0568 129.26 44.1534 129.896 44.1534C130.521 44.1534 131.064 44.0625 131.524 43.8807C131.99 43.6989 132.351 43.446 132.607 43.1222C132.862 42.7983 132.99 42.4261 132.99 42.0057C132.99 41.6136 132.874 41.2841 132.641 41.017C132.413 40.75 132.078 40.5227 131.635 40.3352C131.197 40.1477 130.661 39.9773 130.024 39.8239L128.124 39.3466C126.652 38.9886 125.49 38.429 124.638 37.6676C123.786 36.9062 123.362 35.8807 123.368 34.5909C123.362 33.5341 123.643 32.6108 124.212 31.821C124.786 31.0312 125.572 30.4148 126.572 29.9716C127.572 29.5284 128.709 29.3068 129.982 29.3068C131.277 29.3068 132.408 29.5284 133.374 29.9716C134.345 30.4148 135.101 31.0312 135.641 31.821C136.18 32.6108 136.459 33.5256 136.476 34.5653H132.939ZM139.197 47V29.5455H150.958V32.5881H142.887V36.7472H150.353V39.7898H142.887V43.9574H150.992V47H139.197Z" fill="#4F46E5"/>
<path d="M101.879 57V49H103.086V52.4766H107.074V49H108.285V57H107.074V53.5117H103.086V57H101.879ZM115.188 49H116.398V54.2617C116.398 54.8216 116.267 55.3177 116.004 55.75C115.741 56.1797 115.371 56.5182 114.895 56.7656C114.418 57.0104 113.859 57.1328 113.219 57.1328C112.581 57.1328 112.023 57.0104 111.547 56.7656C111.07 56.5182 110.701 56.1797 110.438 55.75C110.174 55.3177 110.043 54.8216 110.043 54.2617V49H111.25V54.1641C111.25 54.526 111.329 54.8477 111.488 55.1289C111.65 55.4102 111.878 55.6315 112.172 55.793C112.466 55.9518 112.815 56.0312 113.219 56.0312C113.625 56.0312 113.975 55.9518 114.27 55.793C114.566 55.6315 114.793 55.4102 114.949 55.1289C115.108 54.8477 115.188 54.526 115.188 54.1641V49ZM118.153 57V49H121.083C121.651 49 122.121 49.0937 122.493 49.2812C122.866 49.4661 123.144 49.7174 123.329 50.0352C123.514 50.3503 123.606 50.7057 123.606 51.1016C123.606 51.4349 123.545 51.7161 123.423 51.9453C123.3 52.1719 123.136 52.3542 122.931 52.4922C122.728 52.6276 122.504 52.7266 122.259 52.7891V52.8672C122.524 52.8802 122.784 52.9661 123.036 53.125C123.291 53.2812 123.502 53.5039 123.669 53.793C123.836 54.082 123.919 54.4336 123.919 54.8477C123.919 55.2565 123.823 55.6237 123.63 55.9492C123.44 56.2721 123.146 56.5286 122.747 56.7187C122.349 56.9062 121.84 57 121.22 57H118.153ZM119.36 55.9648H121.103C121.681 55.9648 122.095 55.8529 122.345 55.6289C122.595 55.4049 122.72 55.125 122.72 54.7891C122.72 54.5365 122.656 54.3047 122.528 54.0937C122.401 53.8828 122.218 53.7148 121.981 53.5898C121.747 53.4648 121.468 53.4023 121.146 53.4023H119.36V55.9648ZM119.36 52.4609H120.978C121.248 52.4609 121.492 52.4089 121.708 52.3047C121.927 52.2005 122.1 52.0547 122.228 51.8672C122.358 51.6771 122.423 51.4531 122.423 51.1953C122.423 50.8646 122.307 50.5872 122.075 50.3633C121.843 50.1393 121.488 50.0273 121.009 50.0273H119.36V52.4609Z" fill="black"/>
</svg>
