<svg width="100" height="100" viewBox="0 0 100 100" fill="none" xmlns="http://www.w3.org/2000/svg">
<path d="M30.0338 32.8589L40.4941 38.7167C40.807 38.8919 41.1897 38.8862 41.4972 38.7017L50.4999 33.3001C50.8089 33.1146 51.1938 33.1098 51.5074 33.2875L65.493 41.2127C65.8063 41.3903 66 41.7226 66 42.0827V58.9173C66 59.2774 65.8063 59.6097 65.493 59.7873L51.4951 67.7195C51.1881 67.8934 50.8122 67.8927 50.5059 67.7177L41.0013 62.2865C40.6911 62.1092 40.3099 62.1109 40.0013 62.2909L29.9879 68.1321C29.3248 68.5189 29.3268 69.4777 29.9914 69.8617L50.4775 81.6981C50.7989 81.8838 51.1966 81.8762 51.5106 81.6785L77.5328 65.2942C77.8236 65.1111 78 64.7915 78 64.4479V36.0608C78 35.7125 77.8187 35.3892 77.5215 35.2076L51.5071 19.3099C51.1946 19.1189 50.8026 19.1141 50.4854 19.2973L30.0221 31.1206C29.3506 31.5085 29.3572 32.48 30.0338 32.8589Z" fill="black"/>
<path d="M46 50L23.5 62.9904L23.5 37.0096L46 50Z" fill="#4F46E5"/>
</svg>
